<?xml version="1.0" encoding="UTF-8"?>
<svg id="Layer_2" data-name="Layer 2" xmlns="http://www.w3.org/2000/svg" viewBox="0 0 366.68 96.44">
  <defs>
    <style>
      .cls-1 {
        fill: #ce0e2d;
        fill-rule: evenodd;
      }

      .cls-1, .cls-2 {
        stroke-width: 0px;
      }

      .cls-2 {
        fill: #8c9091;
      }
    </style>
  </defs>
  <g id="Layer_1-2" data-name="Layer 1">
    <g>
      <path class="cls-1" d="m137.68,41.16h-31.67c.32-4.46,1.98-8.14,4.94-11.04,3.03-2.9,6.74-4.35,11.14-4.35s8.03,1.48,10.94,4.45c2.9,2.9,4.45,6.58,4.65,11.04v-.09Zm5.03,3.87v-1.06c0-6.33-1.8-11.59-5.42-15.78-3.81-4.39-8.84-6.58-15.11-6.58s-11.49,2.1-15.49,6.29c-3.94,4.2-5.91,9.46-5.91,15.78,0,6.71,2.13,12.27,6.39,16.66,4.26,4.33,9.75,6.48,16.46,6.48,6.07,0,11.49-1.74,16.27-5.23.26-.26.26-.55,0-.87l-2.32-2.51c-.07-.13-.16-.19-.29-.19s-.29.09-.48.29c-3.81,2.65-8.1,3.97-12.88,3.97s-9.2-1.55-12.69-4.64c-3.42-3.16-5.16-7.2-5.23-12.11h36.22c.32,0,.48-.16.48-.48Z"/>
      <path class="cls-1" d="m161.33,65.26V.58c0-.38-.22-.58-.68-.58h-3.48c-.45,0-.68.22-.68.68v64.68c0,.38.23.58.68.58h3.58c.39,0,.58-.23.58-.68Z"/>
      <path class="cls-1" d="m212.58,41.16h-31.66c.32-4.46,1.97-8.14,4.94-11.04,3.03-2.9,6.75-4.35,11.14-4.35s8.04,1.48,10.94,4.45c2.9,2.9,4.45,6.58,4.64,11.04v-.09Zm5.04,3.87v-1.06c0-6.33-1.81-11.59-5.42-15.78-3.81-4.39-8.84-6.58-15.11-6.58s-11.49,2.1-15.49,6.29c-3.94,4.2-5.91,9.46-5.91,15.78,0,6.71,2.13,12.27,6.4,16.66,4.26,4.33,9.74,6.48,16.46,6.48,6.07,0,11.49-1.74,16.27-5.23.26-.26.26-.55,0-.87l-2.32-2.51c-.07-.13-.17-.19-.29-.19-.13,0-.29.09-.49.29-3.81,2.65-8.1,3.97-12.88,3.97s-9.2-1.55-12.68-4.64c-3.42-3.16-5.17-7.2-5.23-12.11h36.21c.32,0,.48-.16.48-.48Z"/>
      <path class="cls-1" d="m267.53,64.49l-17.43-23.73,16.65-16.85c.26-.26.32-.55.19-.87-.13-.39-.42-.58-.87-.58h-11.62c-.52,0-1,.26-1.45.77l-13.17,14.33V1.06c0-.71-.36-1.06-1.07-1.06h-8.81c-.71,0-1.07.36-1.07,1.06v63.81c0,.71.36,1.07,1.07,1.07h8.81c.71,0,1.07-.36,1.07-1.07v-13.94l2.61-2.71,11.72,16.94c.38.52.87.77,1.45.77h11.24c1.16,0,1.39-.48.68-1.45Z"/>
      <path class="cls-1" d="m305.48,44.25c0,3.55-1.16,6.58-3.49,9.1-2.32,2.51-5.23,3.78-8.71,3.78s-6.39-1.26-8.71-3.78c-2.33-2.52-3.49-5.55-3.49-9.1s1.16-6.52,3.49-9.11c2.32-2.58,5.23-3.87,8.71-3.87s6.39,1.29,8.71,3.87c2.32,2.58,3.49,5.62,3.49,9.11Zm10.94,0c0-6.32-2.26-11.69-6.78-16.08-4.52-4.39-9.97-6.58-16.37-6.58s-11.94,2.19-16.46,6.58c-4.46,4.33-6.68,9.68-6.68,16.08s2.23,11.85,6.68,16.17c4.52,4.26,10,6.39,16.46,6.39s11.85-2.16,16.37-6.48c4.52-4.32,6.78-9.69,6.78-16.07Z"/>
      <path class="cls-1" d="m366.49,64.87v-25.17c0-5.62-1.52-10.04-4.55-13.27-3.04-3.23-7.33-4.84-12.88-4.84-4.39,0-7.78,1-10.17,3v-1.06c0-.71-.36-1.07-1.07-1.07h-8.81c-.71,0-1.07.36-1.07,1.07v41.34c0,.71.36,1.07,1.07,1.07h8.81c.71,0,1.07-.36,1.07-1.07v-20.14c0-8.84,2.81-13.26,8.42-13.26,3.23,0,5.49,1.06,6.78,3.19.97,1.61,1.45,4.16,1.45,7.65v22.56c0,.71.36,1.07,1.07,1.07h8.72c.77,0,1.16-.36,1.16-1.07Z"/>
      <path class="cls-1" d="m83.15,64.06c-.19.84-1.14,4.09-2.81,4.74l-3.63,1.12c-4.1,1.39-9.54,3.07-16.34,5.02-8.47,2.33-13.91,3.87-16.33,4.61-11.73,3.53-24.55,8.11-39.63,15.28-.84.37-2.49,1.42-3.79,1.61-.65-.37-.78-3.57-.4-4.6.74-1.77,2.04-3.21,3.91-4.33.75-.09,1.91-.32,3.49-.7,4.19-1.67,10.47-4.1,18.85-7.26,8.47-3.17,15.27-5.45,20.39-6.84,20.2-5.77,32.3-8.66,36.3-8.66Zm-9.78-42.02c-.19.93-.71,4.32-1.55,5.15-2.24,1.4-5.08,2.56-8.52,3.5l-7.12,1.67c-9.78,2.61-24.48,6.89-44.12,12.85-.65.18-1.72.28-3.21.28-.37-.75-.54-3.9-.54-4.45,0-.66.46-1.49,1.4-2.51l2.09-2.52c1.3-.46,2.33-.7,3.07-.7s5.82-1.3,15.22-3.91c4.84-1.31,9.92-2.6,15.22-3.91,6.89-1.68,15.09-3.45,24.58-5.31,1.21-.28,2.37-.32,3.49-.14Zm.7,19.27c-.46,1.96-3,6.04-7.56,7.25l-13.96,3.77c-5.77,1.49-13.5,4.09-23.18,7.82l-8.52,3.91c-5.5,2.33-8.78.99-9.9.99-1.49,0-1.95-.83-1.39-2.51.37-1.12,1.58-2.37,3.63-3.77.93-.09,2.33-.32,4.19-.7,3.72-1.02,6.52-1.95,8.38-2.79,16.1-6.8,32.21-11.45,48.31-13.97Z"/>
      <g>
        <path class="cls-2" d="m166.02,79.39l6.24,13.78h-1.66l-1.6-3.62h-7.45l-1.62,3.62h-1.58l6.24-13.78h1.45Zm2.37,8.78l-3.11-6.98-3.13,6.98h6.24Z"/>
        <path class="cls-2" d="m178.91,87.41l4.38,5.77h-1.8l-3.62-4.71-2.05,2.07v2.64h-1.51v-14.27h1.51v9.85l5.45-5.69h1.88l-4.24,4.34Z"/>
        <path class="cls-2" d="m186.69,93.17h-1.51v-10.11h1.51v10.11Z"/>
        <path class="cls-2" d="m191.44,93.17h-1.51v-14.27h1.51v14.27Z"/>
        <path class="cls-2" d="m196.19,93.17h-1.51v-14.27h1.51v14.27Z"/>
        <path class="cls-2" d="m200.94,93.17h-1.51v-10.11h1.51v10.11Z"/>
        <path class="cls-2" d="m215.62,87.74v5.43h-1.56v-5.42l-5.69-8.27h1.88l4.61,6.84,4.65-6.84h1.8l-5.69,8.25Z"/>
        <path class="cls-2" d="m223.72,85l-.45-1.23c1.23-.57,2.44-.84,3.68-.84,2.76,0,4.3,1.41,4.3,4.07v6.18h-1.45v-1.52c-.88,1.15-2.11,1.74-3.66,1.74-1.02,0-1.88-.27-2.58-.8-.8-.59-1.19-1.37-1.19-2.37,0-2.11,1.68-3.28,4.32-3.28,1.06,0,2.09.14,3.11.43v-.35c0-1.84-1-2.76-3.01-2.76-.96,0-1.99.25-3.07.74Zm.18,5.16c0,.63.25,1.13.76,1.51.47.35,1.06.53,1.78.53.94,0,1.74-.25,2.39-.76.66-.53,1-1.17,1-1.97v-.98c-1-.29-1.97-.43-2.97-.43-1.88,0-2.95.8-2.95,2.11Z"/>
        <path class="cls-2" d="m242.76,92c-.92.92-2.03,1.39-3.32,1.39-1.58,0-2.87-.72-3.87-2.15v5.06h-1.51v-13.23h1.51v2.03c1.02-1.51,2.31-2.25,3.87-2.25,1.29,0,2.4.45,3.32,1.37,1,1,1.51,2.31,1.51,3.89s-.51,2.89-1.51,3.89Zm-1.09-6.74c-.68-.7-1.51-1.06-2.5-1.06s-1.82.35-2.52,1.08c-.76.76-1.13,1.7-1.13,2.83s.37,2.09,1.13,2.85c.7.72,1.54,1.07,2.52,1.07s1.86-.35,2.54-1.06c.68-.7,1.02-1.66,1.02-2.85s-.35-2.13-1.06-2.87Z"/>
        <path class="cls-2" d="m248.3,93.17h-1.51v-10.11h1.51v10.11Z"/>
        <path class="cls-2" d="m262.31,80.91v12.26h-1.56v-12.26h-4.59v-1.43h10.75v1.43h-4.59Z"/>
        <path class="cls-2" d="m270.06,88.68c.1,1.06.51,1.9,1.19,2.52.65.61,1.45.9,2.37.9,1.21,0,2.27-.47,3.19-1.43l.94.84c-1.13,1.27-2.52,1.9-4.16,1.9-1.43,0-2.6-.49-3.56-1.47-1-1-1.49-2.27-1.49-3.81s.47-2.72,1.39-3.73c.92-1.04,2.07-1.54,3.46-1.54s2.6.53,3.48,1.56c.82,1,1.23,2.25,1.23,3.79,0,.2,0,.35-.02.47h-8.02Zm6.51-1.11c-.08-1-.39-1.8-.92-2.4-.59-.68-1.35-1.04-2.31-1.04-.88,0-1.62.33-2.23.98-.61.65-.96,1.47-1.06,2.46h6.51Z"/>
        <path class="cls-2" d="m284.94,87.41l4.38,5.77h-1.8l-3.62-4.71-2.05,2.07v2.64h-1.51v-14.27h1.51v9.85l5.45-5.69h1.88l-4.24,4.34Z"/>
        <path class="cls-2" d="m292.58,93.17h-1.51v-10.11h1.51v1.76c.8-1.31,1.95-1.97,3.46-1.97,2.4,0,3.87,1.6,3.87,4.05v6.28h-1.51v-5.9c0-1.9-1.02-3.05-2.8-3.05-.88,0-1.6.29-2.17.88-.57.59-.86,1.35-.86,2.29v5.79Z"/>
        <path class="cls-2" d="m311.12,91.86c-1.02,1.04-2.27,1.54-3.77,1.54s-2.76-.51-3.75-1.52c-1-1.04-1.49-2.27-1.49-3.73s.51-2.7,1.51-3.73c1.02-1.04,2.27-1.56,3.77-1.56s2.76.51,3.75,1.54c1,1.02,1.51,2.25,1.51,3.71s-.51,2.72-1.52,3.75Zm-1.11-6.53c-.72-.76-1.6-1.15-2.66-1.15s-1.97.37-2.66,1.13c-.68.76-1.04,1.68-1.04,2.8s.35,2.05,1.08,2.81c.72.76,1.6,1.13,2.66,1.13s1.97-.37,2.66-1.13c.7-.76,1.06-1.68,1.06-2.78s-.37-2.05-1.09-2.81Z"/>
        <path class="cls-2" d="m316.61,93.17h-1.51v-14.27h1.51v14.27Z"/>
        <path class="cls-2" d="m328.11,91.86c-1.02,1.04-2.27,1.54-3.77,1.54s-2.76-.51-3.75-1.52c-1-1.04-1.49-2.27-1.49-3.73s.51-2.7,1.51-3.73c1.02-1.04,2.27-1.56,3.77-1.56s2.76.51,3.75,1.54c1,1.02,1.51,2.25,1.51,3.71s-.51,2.72-1.52,3.75Zm-1.11-6.53c-.72-.76-1.6-1.15-2.66-1.15s-1.97.37-2.66,1.13c-.68.76-1.04,1.68-1.04,2.8s.35,2.05,1.08,2.81c.72.76,1.6,1.13,2.66,1.13s1.97-.37,2.66-1.13c.7-.76,1.06-1.68,1.06-2.78s-.37-2.05-1.09-2.81Z"/>
        <path class="cls-2" d="m332.1,83.07h1.51v10.69c0,1.74-.82,2.6-2.46,2.6-.35,0-.66-.04-.94-.1v-1.23c.23.04.49.06.74.06.76,0,1.15-.45,1.15-1.35v-10.67Zm1.62-2.21h-1.72v-1.66h1.72v1.66Z"/>
        <path class="cls-2" d="m338.47,80.86h-1.72v-1.66h1.72v1.66Zm-.12,12.32h-1.51v-10.11h1.51v10.11Z"/>
        <path class="cls-2" d="m343.1,93.17h-1.51v-14.27h1.51v14.27Z"/>
        <path class="cls-2" d="m347.11,88.68c.1,1.06.51,1.9,1.19,2.52.65.61,1.45.9,2.37.9,1.21,0,2.27-.47,3.19-1.43l.94.84c-1.13,1.27-2.52,1.9-4.16,1.9-1.43,0-2.6-.49-3.56-1.47-1-1-1.49-2.27-1.49-3.81s.47-2.72,1.39-3.73c.92-1.04,2.07-1.54,3.46-1.54s2.6.53,3.48,1.56c.82,1,1.23,2.25,1.23,3.79,0,.2,0,.35-.02.47h-8.02Zm6.51-1.11c-.08-1-.39-1.8-.92-2.4-.59-.68-1.35-1.04-2.31-1.04-.88,0-1.62.33-2.23.98s-.96,1.47-1.06,2.46h6.51Z"/>
        <path class="cls-2" d="m358.9,93.17h-1.51v-10.11h1.51v2.64c.39-.88.94-1.56,1.62-2.07.74-.53,1.58-.78,2.5-.74v1.62h-.12c-1.15,0-2.11.39-2.83,1.17-.78.84-1.17,1.99-1.17,3.46v4.03Z"/>
        <path class="cls-2" d="m366.68,80.86h-1.72v-1.66h1.72v1.66Zm-.12,12.32h-1.51v-10.11h1.51v10.11Z"/>
      </g>
    </g>
  </g>
</svg>